<?xml version="1.0" encoding="utf-8"?>
<!-- Generator: Adobe Illustrator 15.0.0, SVG Export Plug-In . SVG Version: 6.00 Build 0)  -->
<!DOCTYPE svg PUBLIC "-//W3C//DTD SVG 1.1//EN" "http://www.w3.org/Graphics/SVG/1.1/DTD/svg11.dtd">
<svg version="1.1" id="Mode_Isolation" xmlns="http://www.w3.org/2000/svg" xmlns:xlink="http://www.w3.org/1999/xlink" x="0px"
	 y="0px" width="223.762px" height="41.034px" viewBox="0 0 223.762 41.034" enable-background="new 0 0 223.762 41.034"
	 xml:space="preserve">
<path opacity="0.1" fill="#211915" d="M220.934,37.483c-3.112,3.158-8.896,4.736-12.713,1.835c-2.235-1.698-2.775-7.204,1.239-6.805
	c1.47,0.146,2.941,1.416,3.192,2.896c0.257,1.522-0.764,2.502-1.973,3.142c2.671,0.619,5.73-0.513,7.721-2.287
	c4.153-3.698,3.955-10.957-1.026-13.909c-4.294-2.546-11.006-1.742-15.754-1.378c-5.265,0.404-10.484,1.244-15.675,2.187
	c-9.828,1.787-19.635,4.002-29.648,4.427c-9.332,0.396-18.713-1.056-27.04-5.443c-6.772-3.569-12.926-9.395-17.201-15.805
	c-0.062,0.006-0.123,0.016-0.186,0.019c-4.284,6.699-10.33,12.266-17.365,15.973c-8.327,4.388-17.709,5.84-27.041,5.443
	c-10.013-0.425-19.819-2.639-29.647-4.426c-5.191-0.944-10.41-1.784-15.675-2.188c-4.748-0.364-11.46-1.167-15.754,1.379
	c-4.981,2.952-5.179,10.211-1.026,13.909c1.991,1.773,5.05,2.905,7.721,2.287c-1.209-0.641-2.23-1.62-1.973-3.143
	c0.251-1.48,1.722-2.749,3.192-2.895c4.014-0.4,3.474,5.106,1.239,6.805c-3.817,2.901-9.601,1.323-12.713-1.836
	c-3.443-3.493-3.63-8.876-1.168-12.973c2.924-4.865,8.299-5.919,13.574-6.051c6.519-0.165,13.031,0.594,19.455,1.641
	c13.289,2.164,26.643,5.845,40.218,5.055c14.293-0.832,26.968-7.774,34.85-19.68c-0.727-0.584-1.202-1.469-1.202-2.475
	c0-1.76,1.427-3.187,3.188-3.187c1.76,0,3.188,1.427,3.188,3.187c0,0.884-0.36,1.683-0.94,2.26
	c7.944,11.503,20.868,18.893,34.865,19.708c13.575,0.79,26.928-2.891,40.218-5.056c6.424-1.046,12.935-1.805,19.455-1.641
	c5.275,0.133,10.65,1.186,13.574,6.051C224.564,28.606,224.377,33.989,220.934,37.483"/>
</svg>
